<mxfile host="app.diagrams.net" modified="2021-01-29T21:14:26.539Z" agent="5.0 (Macintosh)" etag="ZkMhHWPJ88uDOlYHEOjZ" version="14.2.9" type="github">
  <diagram id="e0-jDG0RHhHWmK_CEoYA" name="Page-1">
    <mxGraphModel dx="2066" dy="1081" grid="1" gridSize="10" guides="1" tooltips="1" connect="1" arrows="1" fold="1" page="1" pageScale="1" pageWidth="850" pageHeight="1100" math="0" shadow="0">
      <root>
        <mxCell id="0" />
        <mxCell id="1" parent="0" />
        <mxCell id="Sr963p4TRsLi51BW7ypq-1" value="feature" style="shape=table;startSize=30;container=1;collapsible=1;childLayout=tableLayout;fixedRows=1;rowLines=0;fontStyle=1;align=center;resizeLast=1;" vertex="1" parent="1">
          <mxGeometry x="40" y="40" width="180" height="190" as="geometry" />
        </mxCell>
        <mxCell id="Sr963p4TRsLi51BW7ypq-2" value="" style="shape=partialRectangle;collapsible=0;dropTarget=0;pointerEvents=0;fillColor=none;top=0;left=0;bottom=1;right=0;points=[[0,0.5],[1,0.5]];portConstraint=eastwest;" vertex="1" parent="Sr963p4TRsLi51BW7ypq-1">
          <mxGeometry y="30" width="180" height="30" as="geometry" />
        </mxCell>
        <mxCell id="Sr963p4TRsLi51BW7ypq-3" value="PK" style="shape=partialRectangle;connectable=0;fillColor=none;top=0;left=0;bottom=0;right=0;fontStyle=1;overflow=hidden;" vertex="1" parent="Sr963p4TRsLi51BW7ypq-2">
          <mxGeometry width="30" height="30" as="geometry" />
        </mxCell>
        <mxCell id="Sr963p4TRsLi51BW7ypq-4" value="feature__id" style="shape=partialRectangle;connectable=0;fillColor=none;top=0;left=0;bottom=0;right=0;align=left;spacingLeft=6;fontStyle=5;overflow=hidden;" vertex="1" parent="Sr963p4TRsLi51BW7ypq-2">
          <mxGeometry x="30" width="150" height="30" as="geometry" />
        </mxCell>
        <mxCell id="Sr963p4TRsLi51BW7ypq-5" value="" style="shape=partialRectangle;collapsible=0;dropTarget=0;pointerEvents=0;fillColor=none;top=0;left=0;bottom=0;right=0;points=[[0,0.5],[1,0.5]];portConstraint=eastwest;" vertex="1" parent="Sr963p4TRsLi51BW7ypq-1">
          <mxGeometry y="60" width="180" height="30" as="geometry" />
        </mxCell>
        <mxCell id="Sr963p4TRsLi51BW7ypq-6" value="" style="shape=partialRectangle;connectable=0;fillColor=none;top=0;left=0;bottom=0;right=0;editable=1;overflow=hidden;" vertex="1" parent="Sr963p4TRsLi51BW7ypq-5">
          <mxGeometry width="30" height="30" as="geometry" />
        </mxCell>
        <mxCell id="Sr963p4TRsLi51BW7ypq-7" value="feature__name" style="shape=partialRectangle;connectable=0;fillColor=none;top=0;left=0;bottom=0;right=0;align=left;spacingLeft=6;overflow=hidden;" vertex="1" parent="Sr963p4TRsLi51BW7ypq-5">
          <mxGeometry x="30" width="150" height="30" as="geometry" />
        </mxCell>
        <mxCell id="Sr963p4TRsLi51BW7ypq-8" value="" style="shape=partialRectangle;collapsible=0;dropTarget=0;pointerEvents=0;fillColor=none;top=0;left=0;bottom=0;right=0;points=[[0,0.5],[1,0.5]];portConstraint=eastwest;" vertex="1" parent="Sr963p4TRsLi51BW7ypq-1">
          <mxGeometry y="90" width="180" height="30" as="geometry" />
        </mxCell>
        <mxCell id="Sr963p4TRsLi51BW7ypq-9" value="" style="shape=partialRectangle;connectable=0;fillColor=none;top=0;left=0;bottom=0;right=0;editable=1;overflow=hidden;" vertex="1" parent="Sr963p4TRsLi51BW7ypq-8">
          <mxGeometry width="30" height="30" as="geometry" />
        </mxCell>
        <mxCell id="Sr963p4TRsLi51BW7ypq-10" value="feature__enabled (bool)" style="shape=partialRectangle;connectable=0;fillColor=none;top=0;left=0;bottom=0;right=0;align=left;spacingLeft=6;overflow=hidden;" vertex="1" parent="Sr963p4TRsLi51BW7ypq-8">
          <mxGeometry x="30" width="150" height="30" as="geometry" />
        </mxCell>
        <mxCell id="Sr963p4TRsLi51BW7ypq-70" value="" style="shape=partialRectangle;collapsible=0;dropTarget=0;pointerEvents=0;fillColor=none;top=0;left=0;bottom=0;right=0;points=[[0,0.5],[1,0.5]];portConstraint=eastwest;" vertex="1" parent="Sr963p4TRsLi51BW7ypq-1">
          <mxGeometry y="120" width="180" height="30" as="geometry" />
        </mxCell>
        <mxCell id="Sr963p4TRsLi51BW7ypq-71" value="" style="shape=partialRectangle;connectable=0;fillColor=none;top=0;left=0;bottom=0;right=0;editable=1;overflow=hidden;" vertex="1" parent="Sr963p4TRsLi51BW7ypq-70">
          <mxGeometry width="30" height="30" as="geometry" />
        </mxCell>
        <mxCell id="Sr963p4TRsLi51BW7ypq-72" value="feature__notBefore" style="shape=partialRectangle;connectable=0;fillColor=none;top=0;left=0;bottom=0;right=0;align=left;spacingLeft=6;overflow=hidden;" vertex="1" parent="Sr963p4TRsLi51BW7ypq-70">
          <mxGeometry x="30" width="150" height="30" as="geometry" />
        </mxCell>
        <mxCell id="Sr963p4TRsLi51BW7ypq-73" value="" style="shape=partialRectangle;collapsible=0;dropTarget=0;pointerEvents=0;fillColor=none;top=0;left=0;bottom=0;right=0;points=[[0,0.5],[1,0.5]];portConstraint=eastwest;" vertex="1" parent="Sr963p4TRsLi51BW7ypq-1">
          <mxGeometry y="150" width="180" height="30" as="geometry" />
        </mxCell>
        <mxCell id="Sr963p4TRsLi51BW7ypq-74" value="" style="shape=partialRectangle;connectable=0;fillColor=none;top=0;left=0;bottom=0;right=0;editable=1;overflow=hidden;" vertex="1" parent="Sr963p4TRsLi51BW7ypq-73">
          <mxGeometry width="30" height="30" as="geometry" />
        </mxCell>
        <mxCell id="Sr963p4TRsLi51BW7ypq-75" value="feature__notAfter" style="shape=partialRectangle;connectable=0;fillColor=none;top=0;left=0;bottom=0;right=0;align=left;spacingLeft=6;overflow=hidden;" vertex="1" parent="Sr963p4TRsLi51BW7ypq-73">
          <mxGeometry x="30" width="150" height="30" as="geometry" />
        </mxCell>
        <mxCell id="Sr963p4TRsLi51BW7ypq-14" value="zadmin" style="shape=table;startSize=30;container=1;collapsible=1;childLayout=tableLayout;fixedRows=1;rowLines=0;fontStyle=1;align=center;resizeLast=1;" vertex="1" parent="1">
          <mxGeometry x="620" y="240" width="180" height="100" as="geometry" />
        </mxCell>
        <mxCell id="Sr963p4TRsLi51BW7ypq-15" value="" style="shape=partialRectangle;collapsible=0;dropTarget=0;pointerEvents=0;fillColor=none;top=0;left=0;bottom=1;right=0;points=[[0,0.5],[1,0.5]];portConstraint=eastwest;" vertex="1" parent="Sr963p4TRsLi51BW7ypq-14">
          <mxGeometry y="30" width="180" height="30" as="geometry" />
        </mxCell>
        <mxCell id="Sr963p4TRsLi51BW7ypq-16" value="PK" style="shape=partialRectangle;connectable=0;fillColor=none;top=0;left=0;bottom=0;right=0;fontStyle=1;overflow=hidden;" vertex="1" parent="Sr963p4TRsLi51BW7ypq-15">
          <mxGeometry width="30" height="30" as="geometry" />
        </mxCell>
        <mxCell id="Sr963p4TRsLi51BW7ypq-17" value="id" style="shape=partialRectangle;connectable=0;fillColor=none;top=0;left=0;bottom=0;right=0;align=left;spacingLeft=6;fontStyle=5;overflow=hidden;" vertex="1" parent="Sr963p4TRsLi51BW7ypq-15">
          <mxGeometry x="30" width="150" height="30" as="geometry" />
        </mxCell>
        <mxCell id="Sr963p4TRsLi51BW7ypq-18" value="" style="shape=partialRectangle;collapsible=0;dropTarget=0;pointerEvents=0;fillColor=none;top=0;left=0;bottom=0;right=0;points=[[0,0.5],[1,0.5]];portConstraint=eastwest;" vertex="1" parent="Sr963p4TRsLi51BW7ypq-14">
          <mxGeometry y="60" width="180" height="30" as="geometry" />
        </mxCell>
        <mxCell id="Sr963p4TRsLi51BW7ypq-19" value="" style="shape=partialRectangle;connectable=0;fillColor=none;top=0;left=0;bottom=0;right=0;editable=1;overflow=hidden;" vertex="1" parent="Sr963p4TRsLi51BW7ypq-18">
          <mxGeometry width="30" height="30" as="geometry" />
        </mxCell>
        <mxCell id="Sr963p4TRsLi51BW7ypq-20" value="zadmin__externalId" style="shape=partialRectangle;connectable=0;fillColor=none;top=0;left=0;bottom=0;right=0;align=left;spacingLeft=6;overflow=hidden;" vertex="1" parent="Sr963p4TRsLi51BW7ypq-18">
          <mxGeometry x="30" width="150" height="30" as="geometry" />
        </mxCell>
        <mxCell id="Sr963p4TRsLi51BW7ypq-24" value="customer" style="shape=table;startSize=30;container=1;collapsible=1;childLayout=tableLayout;fixedRows=1;rowLines=0;fontStyle=1;align=center;resizeLast=1;" vertex="1" parent="1">
          <mxGeometry x="620" y="400" width="180" height="120" as="geometry" />
        </mxCell>
        <mxCell id="Sr963p4TRsLi51BW7ypq-25" value="" style="shape=partialRectangle;collapsible=0;dropTarget=0;pointerEvents=0;fillColor=none;top=0;left=0;bottom=1;right=0;points=[[0,0.5],[1,0.5]];portConstraint=eastwest;" vertex="1" parent="Sr963p4TRsLi51BW7ypq-24">
          <mxGeometry y="30" width="180" height="30" as="geometry" />
        </mxCell>
        <mxCell id="Sr963p4TRsLi51BW7ypq-26" value="PK" style="shape=partialRectangle;connectable=0;fillColor=none;top=0;left=0;bottom=0;right=0;fontStyle=1;overflow=hidden;" vertex="1" parent="Sr963p4TRsLi51BW7ypq-25">
          <mxGeometry width="30" height="30" as="geometry" />
        </mxCell>
        <mxCell id="Sr963p4TRsLi51BW7ypq-27" value="customer__id" style="shape=partialRectangle;connectable=0;fillColor=none;top=0;left=0;bottom=0;right=0;align=left;spacingLeft=6;fontStyle=5;overflow=hidden;" vertex="1" parent="Sr963p4TRsLi51BW7ypq-25">
          <mxGeometry x="30" width="150" height="30" as="geometry" />
        </mxCell>
        <mxCell id="Sr963p4TRsLi51BW7ypq-41" value="" style="shape=partialRectangle;collapsible=0;dropTarget=0;pointerEvents=0;fillColor=none;top=0;left=0;bottom=1;right=0;points=[[0,0.5],[1,0.5]];portConstraint=eastwest;" vertex="1" parent="Sr963p4TRsLi51BW7ypq-24">
          <mxGeometry y="60" width="180" height="30" as="geometry" />
        </mxCell>
        <mxCell id="Sr963p4TRsLi51BW7ypq-42" value="FK" style="shape=partialRectangle;connectable=0;fillColor=none;top=0;left=0;bottom=0;right=0;fontStyle=1;overflow=hidden;" vertex="1" parent="Sr963p4TRsLi51BW7ypq-41">
          <mxGeometry width="30" height="30" as="geometry" />
        </mxCell>
        <mxCell id="Sr963p4TRsLi51BW7ypq-43" value="zadmin__id" style="shape=partialRectangle;connectable=0;fillColor=none;top=0;left=0;bottom=0;right=0;align=left;spacingLeft=6;fontStyle=5;overflow=hidden;" vertex="1" parent="Sr963p4TRsLi51BW7ypq-41">
          <mxGeometry x="30" width="150" height="30" as="geometry" />
        </mxCell>
        <mxCell id="Sr963p4TRsLi51BW7ypq-28" value="" style="shape=partialRectangle;collapsible=0;dropTarget=0;pointerEvents=0;fillColor=none;top=0;left=0;bottom=0;right=0;points=[[0,0.5],[1,0.5]];portConstraint=eastwest;" vertex="1" parent="Sr963p4TRsLi51BW7ypq-24">
          <mxGeometry y="90" width="180" height="30" as="geometry" />
        </mxCell>
        <mxCell id="Sr963p4TRsLi51BW7ypq-29" value="" style="shape=partialRectangle;connectable=0;fillColor=none;top=0;left=0;bottom=0;right=0;editable=1;overflow=hidden;" vertex="1" parent="Sr963p4TRsLi51BW7ypq-28">
          <mxGeometry width="30" height="30" as="geometry" />
        </mxCell>
        <mxCell id="Sr963p4TRsLi51BW7ypq-30" value="customer__externalId" style="shape=partialRectangle;connectable=0;fillColor=none;top=0;left=0;bottom=0;right=0;align=left;spacingLeft=6;overflow=hidden;" vertex="1" parent="Sr963p4TRsLi51BW7ypq-28">
          <mxGeometry x="30" width="150" height="30" as="geometry" />
        </mxCell>
        <mxCell id="Sr963p4TRsLi51BW7ypq-44" style="edgeStyle=orthogonalEdgeStyle;rounded=0;orthogonalLoop=1;jettySize=auto;html=1;entryX=0;entryY=0.5;entryDx=0;entryDy=0;" edge="1" parent="1" target="Sr963p4TRsLi51BW7ypq-15">
          <mxGeometry relative="1" as="geometry">
            <mxPoint x="620" y="475" as="sourcePoint" />
            <Array as="points">
              <mxPoint x="560" y="475" />
              <mxPoint x="560" y="325" />
              <mxPoint x="620" y="325" />
            </Array>
          </mxGeometry>
        </mxCell>
        <mxCell id="Sr963p4TRsLi51BW7ypq-45" value="user" style="shape=table;startSize=30;container=1;collapsible=1;childLayout=tableLayout;fixedRows=1;rowLines=0;fontStyle=1;align=center;resizeLast=1;" vertex="1" parent="1">
          <mxGeometry x="620" y="570" width="180" height="120" as="geometry" />
        </mxCell>
        <mxCell id="Sr963p4TRsLi51BW7ypq-46" value="" style="shape=partialRectangle;collapsible=0;dropTarget=0;pointerEvents=0;fillColor=none;top=0;left=0;bottom=1;right=0;points=[[0,0.5],[1,0.5]];portConstraint=eastwest;" vertex="1" parent="Sr963p4TRsLi51BW7ypq-45">
          <mxGeometry y="30" width="180" height="30" as="geometry" />
        </mxCell>
        <mxCell id="Sr963p4TRsLi51BW7ypq-47" value="PK" style="shape=partialRectangle;connectable=0;fillColor=none;top=0;left=0;bottom=0;right=0;fontStyle=1;overflow=hidden;" vertex="1" parent="Sr963p4TRsLi51BW7ypq-46">
          <mxGeometry width="30" height="30" as="geometry" />
        </mxCell>
        <mxCell id="Sr963p4TRsLi51BW7ypq-48" value="user__id" style="shape=partialRectangle;connectable=0;fillColor=none;top=0;left=0;bottom=0;right=0;align=left;spacingLeft=6;fontStyle=5;overflow=hidden;" vertex="1" parent="Sr963p4TRsLi51BW7ypq-46">
          <mxGeometry x="30" width="150" height="30" as="geometry" />
        </mxCell>
        <mxCell id="Sr963p4TRsLi51BW7ypq-49" value="" style="shape=partialRectangle;collapsible=0;dropTarget=0;pointerEvents=0;fillColor=none;top=0;left=0;bottom=1;right=0;points=[[0,0.5],[1,0.5]];portConstraint=eastwest;" vertex="1" parent="Sr963p4TRsLi51BW7ypq-45">
          <mxGeometry y="60" width="180" height="30" as="geometry" />
        </mxCell>
        <mxCell id="Sr963p4TRsLi51BW7ypq-50" value="FK" style="shape=partialRectangle;connectable=0;fillColor=none;top=0;left=0;bottom=0;right=0;fontStyle=1;overflow=hidden;" vertex="1" parent="Sr963p4TRsLi51BW7ypq-49">
          <mxGeometry width="30" height="30" as="geometry" />
        </mxCell>
        <mxCell id="Sr963p4TRsLi51BW7ypq-51" value="customer__id" style="shape=partialRectangle;connectable=0;fillColor=none;top=0;left=0;bottom=0;right=0;align=left;spacingLeft=6;fontStyle=5;overflow=hidden;" vertex="1" parent="Sr963p4TRsLi51BW7ypq-49">
          <mxGeometry x="30" width="150" height="30" as="geometry" />
        </mxCell>
        <mxCell id="Sr963p4TRsLi51BW7ypq-52" value="" style="shape=partialRectangle;collapsible=0;dropTarget=0;pointerEvents=0;fillColor=none;top=0;left=0;bottom=0;right=0;points=[[0,0.5],[1,0.5]];portConstraint=eastwest;" vertex="1" parent="Sr963p4TRsLi51BW7ypq-45">
          <mxGeometry y="90" width="180" height="30" as="geometry" />
        </mxCell>
        <mxCell id="Sr963p4TRsLi51BW7ypq-53" value="" style="shape=partialRectangle;connectable=0;fillColor=none;top=0;left=0;bottom=0;right=0;editable=1;overflow=hidden;" vertex="1" parent="Sr963p4TRsLi51BW7ypq-52">
          <mxGeometry width="30" height="30" as="geometry" />
        </mxCell>
        <mxCell id="Sr963p4TRsLi51BW7ypq-54" value="user__externalId" style="shape=partialRectangle;connectable=0;fillColor=none;top=0;left=0;bottom=0;right=0;align=left;spacingLeft=6;overflow=hidden;" vertex="1" parent="Sr963p4TRsLi51BW7ypq-52">
          <mxGeometry x="30" width="150" height="30" as="geometry" />
        </mxCell>
        <mxCell id="Sr963p4TRsLi51BW7ypq-55" style="edgeStyle=orthogonalEdgeStyle;rounded=0;orthogonalLoop=1;jettySize=auto;html=1;exitX=0;exitY=0.5;exitDx=0;exitDy=0;entryX=0;entryY=0.5;entryDx=0;entryDy=0;" edge="1" parent="1" source="Sr963p4TRsLi51BW7ypq-49" target="Sr963p4TRsLi51BW7ypq-25">
          <mxGeometry relative="1" as="geometry" />
        </mxCell>
        <mxCell id="Sr963p4TRsLi51BW7ypq-56" value="event" style="shape=table;startSize=30;container=1;collapsible=1;childLayout=tableLayout;fixedRows=1;rowLines=0;fontStyle=1;align=center;resizeLast=1;" vertex="1" parent="1">
          <mxGeometry x="620" y="40" width="180" height="150" as="geometry" />
        </mxCell>
        <mxCell id="Sr963p4TRsLi51BW7ypq-57" value="" style="shape=partialRectangle;collapsible=0;dropTarget=0;pointerEvents=0;fillColor=none;top=0;left=0;bottom=1;right=0;points=[[0,0.5],[1,0.5]];portConstraint=eastwest;" vertex="1" parent="Sr963p4TRsLi51BW7ypq-56">
          <mxGeometry y="30" width="180" height="30" as="geometry" />
        </mxCell>
        <mxCell id="Sr963p4TRsLi51BW7ypq-58" value="PK" style="shape=partialRectangle;connectable=0;fillColor=none;top=0;left=0;bottom=0;right=0;fontStyle=1;overflow=hidden;" vertex="1" parent="Sr963p4TRsLi51BW7ypq-57">
          <mxGeometry width="30" height="30" as="geometry" />
        </mxCell>
        <mxCell id="Sr963p4TRsLi51BW7ypq-59" value="event__id" style="shape=partialRectangle;connectable=0;fillColor=none;top=0;left=0;bottom=0;right=0;align=left;spacingLeft=6;fontStyle=5;overflow=hidden;" vertex="1" parent="Sr963p4TRsLi51BW7ypq-57">
          <mxGeometry x="30" width="150" height="30" as="geometry" />
        </mxCell>
        <mxCell id="Sr963p4TRsLi51BW7ypq-60" value="" style="shape=partialRectangle;collapsible=0;dropTarget=0;pointerEvents=0;fillColor=none;top=0;left=0;bottom=1;right=0;points=[[0,0.5],[1,0.5]];portConstraint=eastwest;" vertex="1" parent="Sr963p4TRsLi51BW7ypq-56">
          <mxGeometry y="60" width="180" height="30" as="geometry" />
        </mxCell>
        <mxCell id="Sr963p4TRsLi51BW7ypq-61" value="FK" style="shape=partialRectangle;connectable=0;fillColor=none;top=0;left=0;bottom=0;right=0;fontStyle=1;overflow=hidden;" vertex="1" parent="Sr963p4TRsLi51BW7ypq-60">
          <mxGeometry width="30" height="30" as="geometry" />
        </mxCell>
        <mxCell id="Sr963p4TRsLi51BW7ypq-62" value="zadmin__id" style="shape=partialRectangle;connectable=0;fillColor=none;top=0;left=0;bottom=0;right=0;align=left;spacingLeft=6;fontStyle=5;overflow=hidden;" vertex="1" parent="Sr963p4TRsLi51BW7ypq-60">
          <mxGeometry x="30" width="150" height="30" as="geometry" />
        </mxCell>
        <mxCell id="Sr963p4TRsLi51BW7ypq-63" value="" style="shape=partialRectangle;collapsible=0;dropTarget=0;pointerEvents=0;fillColor=none;top=0;left=0;bottom=0;right=0;points=[[0,0.5],[1,0.5]];portConstraint=eastwest;" vertex="1" parent="Sr963p4TRsLi51BW7ypq-56">
          <mxGeometry y="90" width="180" height="30" as="geometry" />
        </mxCell>
        <mxCell id="Sr963p4TRsLi51BW7ypq-64" value="" style="shape=partialRectangle;connectable=0;fillColor=none;top=0;left=0;bottom=0;right=0;editable=1;overflow=hidden;" vertex="1" parent="Sr963p4TRsLi51BW7ypq-63">
          <mxGeometry width="30" height="30" as="geometry" />
        </mxCell>
        <mxCell id="Sr963p4TRsLi51BW7ypq-65" value="event__modifiedAt" style="shape=partialRectangle;connectable=0;fillColor=none;top=0;left=0;bottom=0;right=0;align=left;spacingLeft=6;overflow=hidden;" vertex="1" parent="Sr963p4TRsLi51BW7ypq-63">
          <mxGeometry x="30" width="150" height="30" as="geometry" />
        </mxCell>
        <mxCell id="Sr963p4TRsLi51BW7ypq-67" value="" style="shape=partialRectangle;collapsible=0;dropTarget=0;pointerEvents=0;fillColor=none;top=0;left=0;bottom=0;right=0;points=[[0,0.5],[1,0.5]];portConstraint=eastwest;" vertex="1" parent="Sr963p4TRsLi51BW7ypq-56">
          <mxGeometry y="120" width="180" height="30" as="geometry" />
        </mxCell>
        <mxCell id="Sr963p4TRsLi51BW7ypq-68" value="" style="shape=partialRectangle;connectable=0;fillColor=none;top=0;left=0;bottom=0;right=0;editable=1;overflow=hidden;" vertex="1" parent="Sr963p4TRsLi51BW7ypq-67">
          <mxGeometry width="30" height="30" as="geometry" />
        </mxCell>
        <mxCell id="Sr963p4TRsLi51BW7ypq-69" value="event__modifiedAt" style="shape=partialRectangle;connectable=0;fillColor=none;top=0;left=0;bottom=0;right=0;align=left;spacingLeft=6;overflow=hidden;" vertex="1" parent="Sr963p4TRsLi51BW7ypq-67">
          <mxGeometry x="30" width="150" height="30" as="geometry" />
        </mxCell>
        <mxCell id="Sr963p4TRsLi51BW7ypq-66" style="edgeStyle=orthogonalEdgeStyle;rounded=0;orthogonalLoop=1;jettySize=auto;html=1;exitX=0;exitY=0.5;exitDx=0;exitDy=0;entryX=0;entryY=0.5;entryDx=0;entryDy=0;" edge="1" parent="1" source="Sr963p4TRsLi51BW7ypq-15" target="Sr963p4TRsLi51BW7ypq-60">
          <mxGeometry relative="1" as="geometry" />
        </mxCell>
        <mxCell id="Sr963p4TRsLi51BW7ypq-76" value="service" style="shape=table;startSize=30;container=1;collapsible=1;childLayout=tableLayout;fixedRows=1;rowLines=0;fontStyle=1;align=center;resizeLast=1;" vertex="1" parent="1">
          <mxGeometry x="620" y="720" width="180" height="90" as="geometry" />
        </mxCell>
        <mxCell id="Sr963p4TRsLi51BW7ypq-77" value="" style="shape=partialRectangle;collapsible=0;dropTarget=0;pointerEvents=0;fillColor=none;top=0;left=0;bottom=1;right=0;points=[[0,0.5],[1,0.5]];portConstraint=eastwest;" vertex="1" parent="Sr963p4TRsLi51BW7ypq-76">
          <mxGeometry y="30" width="180" height="30" as="geometry" />
        </mxCell>
        <mxCell id="Sr963p4TRsLi51BW7ypq-78" value="PK" style="shape=partialRectangle;connectable=0;fillColor=none;top=0;left=0;bottom=0;right=0;fontStyle=1;overflow=hidden;" vertex="1" parent="Sr963p4TRsLi51BW7ypq-77">
          <mxGeometry width="30" height="30" as="geometry" />
        </mxCell>
        <mxCell id="Sr963p4TRsLi51BW7ypq-79" value="service__id" style="shape=partialRectangle;connectable=0;fillColor=none;top=0;left=0;bottom=0;right=0;align=left;spacingLeft=6;fontStyle=5;overflow=hidden;" vertex="1" parent="Sr963p4TRsLi51BW7ypq-77">
          <mxGeometry x="30" width="150" height="30" as="geometry" />
        </mxCell>
        <mxCell id="Sr963p4TRsLi51BW7ypq-83" value="" style="shape=partialRectangle;collapsible=0;dropTarget=0;pointerEvents=0;fillColor=none;top=0;left=0;bottom=0;right=0;points=[[0,0.5],[1,0.5]];portConstraint=eastwest;" vertex="1" parent="Sr963p4TRsLi51BW7ypq-76">
          <mxGeometry y="60" width="180" height="30" as="geometry" />
        </mxCell>
        <mxCell id="Sr963p4TRsLi51BW7ypq-84" value="" style="shape=partialRectangle;connectable=0;fillColor=none;top=0;left=0;bottom=0;right=0;editable=1;overflow=hidden;" vertex="1" parent="Sr963p4TRsLi51BW7ypq-83">
          <mxGeometry width="30" height="30" as="geometry" />
        </mxCell>
        <mxCell id="Sr963p4TRsLi51BW7ypq-85" value="service__name" style="shape=partialRectangle;connectable=0;fillColor=none;top=0;left=0;bottom=0;right=0;align=left;spacingLeft=6;overflow=hidden;" vertex="1" parent="Sr963p4TRsLi51BW7ypq-83">
          <mxGeometry x="30" width="150" height="30" as="geometry" />
        </mxCell>
        <mxCell id="Sr963p4TRsLi51BW7ypq-86" value="customer_feature" style="shape=table;startSize=30;container=1;collapsible=1;childLayout=tableLayout;fixedRows=1;rowLines=0;fontStyle=1;align=center;resizeLast=1;" vertex="1" parent="1">
          <mxGeometry x="300" y="150" width="230" height="180" as="geometry" />
        </mxCell>
        <mxCell id="Sr963p4TRsLi51BW7ypq-87" value="" style="shape=partialRectangle;collapsible=0;dropTarget=0;pointerEvents=0;fillColor=none;top=0;left=0;bottom=1;right=0;points=[[0,0.5],[1,0.5]];portConstraint=eastwest;" vertex="1" parent="Sr963p4TRsLi51BW7ypq-86">
          <mxGeometry y="30" width="230" height="30" as="geometry" />
        </mxCell>
        <mxCell id="Sr963p4TRsLi51BW7ypq-88" value="PK" style="shape=partialRectangle;connectable=0;fillColor=none;top=0;left=0;bottom=0;right=0;fontStyle=1;overflow=hidden;" vertex="1" parent="Sr963p4TRsLi51BW7ypq-87">
          <mxGeometry width="30" height="30" as="geometry" />
        </mxCell>
        <mxCell id="Sr963p4TRsLi51BW7ypq-89" value="customer_feature__id" style="shape=partialRectangle;connectable=0;fillColor=none;top=0;left=0;bottom=0;right=0;align=left;spacingLeft=6;fontStyle=5;overflow=hidden;" vertex="1" parent="Sr963p4TRsLi51BW7ypq-87">
          <mxGeometry x="30" width="200" height="30" as="geometry" />
        </mxCell>
        <mxCell id="Sr963p4TRsLi51BW7ypq-90" value="" style="shape=partialRectangle;collapsible=0;dropTarget=0;pointerEvents=0;fillColor=none;top=0;left=0;bottom=1;right=0;points=[[0,0.5],[1,0.5]];portConstraint=eastwest;" vertex="1" parent="Sr963p4TRsLi51BW7ypq-86">
          <mxGeometry y="60" width="230" height="30" as="geometry" />
        </mxCell>
        <mxCell id="Sr963p4TRsLi51BW7ypq-91" value="FK" style="shape=partialRectangle;connectable=0;fillColor=none;top=0;left=0;bottom=0;right=0;fontStyle=1;overflow=hidden;" vertex="1" parent="Sr963p4TRsLi51BW7ypq-90">
          <mxGeometry width="30" height="30" as="geometry" />
        </mxCell>
        <mxCell id="Sr963p4TRsLi51BW7ypq-92" value="feature__id" style="shape=partialRectangle;connectable=0;fillColor=none;top=0;left=0;bottom=0;right=0;align=left;spacingLeft=6;fontStyle=5;overflow=hidden;" vertex="1" parent="Sr963p4TRsLi51BW7ypq-90">
          <mxGeometry x="30" width="200" height="30" as="geometry" />
        </mxCell>
        <mxCell id="Sr963p4TRsLi51BW7ypq-125" value="" style="shape=partialRectangle;collapsible=0;dropTarget=0;pointerEvents=0;fillColor=none;top=0;left=0;bottom=1;right=0;points=[[0,0.5],[1,0.5]];portConstraint=eastwest;" vertex="1" parent="Sr963p4TRsLi51BW7ypq-86">
          <mxGeometry y="90" width="230" height="30" as="geometry" />
        </mxCell>
        <mxCell id="Sr963p4TRsLi51BW7ypq-126" value="FK" style="shape=partialRectangle;connectable=0;fillColor=none;top=0;left=0;bottom=0;right=0;fontStyle=1;overflow=hidden;" vertex="1" parent="Sr963p4TRsLi51BW7ypq-125">
          <mxGeometry width="30" height="30" as="geometry" />
        </mxCell>
        <mxCell id="Sr963p4TRsLi51BW7ypq-127" value="customer__id" style="shape=partialRectangle;connectable=0;fillColor=none;top=0;left=0;bottom=0;right=0;align=left;spacingLeft=6;fontStyle=5;overflow=hidden;" vertex="1" parent="Sr963p4TRsLi51BW7ypq-125">
          <mxGeometry x="30" width="200" height="30" as="geometry" />
        </mxCell>
        <mxCell id="Sr963p4TRsLi51BW7ypq-93" value="" style="shape=partialRectangle;collapsible=0;dropTarget=0;pointerEvents=0;fillColor=none;top=0;left=0;bottom=0;right=0;points=[[0,0.5],[1,0.5]];portConstraint=eastwest;" vertex="1" parent="Sr963p4TRsLi51BW7ypq-86">
          <mxGeometry y="120" width="230" height="30" as="geometry" />
        </mxCell>
        <mxCell id="Sr963p4TRsLi51BW7ypq-94" value="" style="shape=partialRectangle;connectable=0;fillColor=none;top=0;left=0;bottom=0;right=0;editable=1;overflow=hidden;" vertex="1" parent="Sr963p4TRsLi51BW7ypq-93">
          <mxGeometry width="30" height="30" as="geometry" />
        </mxCell>
        <mxCell id="Sr963p4TRsLi51BW7ypq-95" value="customer_feature__modifiedAt" style="shape=partialRectangle;connectable=0;fillColor=none;top=0;left=0;bottom=0;right=0;align=left;spacingLeft=6;overflow=hidden;" vertex="1" parent="Sr963p4TRsLi51BW7ypq-93">
          <mxGeometry x="30" width="200" height="30" as="geometry" />
        </mxCell>
        <mxCell id="Sr963p4TRsLi51BW7ypq-96" value="" style="shape=partialRectangle;collapsible=0;dropTarget=0;pointerEvents=0;fillColor=none;top=0;left=0;bottom=0;right=0;points=[[0,0.5],[1,0.5]];portConstraint=eastwest;" vertex="1" parent="Sr963p4TRsLi51BW7ypq-86">
          <mxGeometry y="150" width="230" height="30" as="geometry" />
        </mxCell>
        <mxCell id="Sr963p4TRsLi51BW7ypq-97" value="" style="shape=partialRectangle;connectable=0;fillColor=none;top=0;left=0;bottom=0;right=0;editable=1;overflow=hidden;" vertex="1" parent="Sr963p4TRsLi51BW7ypq-96">
          <mxGeometry width="30" height="30" as="geometry" />
        </mxCell>
        <mxCell id="Sr963p4TRsLi51BW7ypq-98" value="customer_feature__enabled" style="shape=partialRectangle;connectable=0;fillColor=none;top=0;left=0;bottom=0;right=0;align=left;spacingLeft=6;overflow=hidden;" vertex="1" parent="Sr963p4TRsLi51BW7ypq-96">
          <mxGeometry x="30" width="200" height="30" as="geometry" />
        </mxCell>
        <mxCell id="Sr963p4TRsLi51BW7ypq-99" value="user_feature" style="shape=table;startSize=30;container=1;collapsible=1;childLayout=tableLayout;fixedRows=1;rowLines=0;fontStyle=1;align=center;resizeLast=1;" vertex="1" parent="1">
          <mxGeometry x="310" y="350" width="180" height="150" as="geometry" />
        </mxCell>
        <mxCell id="Sr963p4TRsLi51BW7ypq-100" value="" style="shape=partialRectangle;collapsible=0;dropTarget=0;pointerEvents=0;fillColor=none;top=0;left=0;bottom=1;right=0;points=[[0,0.5],[1,0.5]];portConstraint=eastwest;" vertex="1" parent="Sr963p4TRsLi51BW7ypq-99">
          <mxGeometry y="30" width="180" height="30" as="geometry" />
        </mxCell>
        <mxCell id="Sr963p4TRsLi51BW7ypq-101" value="PK" style="shape=partialRectangle;connectable=0;fillColor=none;top=0;left=0;bottom=0;right=0;fontStyle=1;overflow=hidden;" vertex="1" parent="Sr963p4TRsLi51BW7ypq-100">
          <mxGeometry width="30" height="30" as="geometry" />
        </mxCell>
        <mxCell id="Sr963p4TRsLi51BW7ypq-102" value="event__id" style="shape=partialRectangle;connectable=0;fillColor=none;top=0;left=0;bottom=0;right=0;align=left;spacingLeft=6;fontStyle=5;overflow=hidden;" vertex="1" parent="Sr963p4TRsLi51BW7ypq-100">
          <mxGeometry x="30" width="150" height="30" as="geometry" />
        </mxCell>
        <mxCell id="Sr963p4TRsLi51BW7ypq-103" value="" style="shape=partialRectangle;collapsible=0;dropTarget=0;pointerEvents=0;fillColor=none;top=0;left=0;bottom=1;right=0;points=[[0,0.5],[1,0.5]];portConstraint=eastwest;" vertex="1" parent="Sr963p4TRsLi51BW7ypq-99">
          <mxGeometry y="60" width="180" height="30" as="geometry" />
        </mxCell>
        <mxCell id="Sr963p4TRsLi51BW7ypq-104" value="FK" style="shape=partialRectangle;connectable=0;fillColor=none;top=0;left=0;bottom=0;right=0;fontStyle=1;overflow=hidden;" vertex="1" parent="Sr963p4TRsLi51BW7ypq-103">
          <mxGeometry width="30" height="30" as="geometry" />
        </mxCell>
        <mxCell id="Sr963p4TRsLi51BW7ypq-105" value="zadmin__id" style="shape=partialRectangle;connectable=0;fillColor=none;top=0;left=0;bottom=0;right=0;align=left;spacingLeft=6;fontStyle=5;overflow=hidden;" vertex="1" parent="Sr963p4TRsLi51BW7ypq-103">
          <mxGeometry x="30" width="150" height="30" as="geometry" />
        </mxCell>
        <mxCell id="Sr963p4TRsLi51BW7ypq-106" value="" style="shape=partialRectangle;collapsible=0;dropTarget=0;pointerEvents=0;fillColor=none;top=0;left=0;bottom=0;right=0;points=[[0,0.5],[1,0.5]];portConstraint=eastwest;" vertex="1" parent="Sr963p4TRsLi51BW7ypq-99">
          <mxGeometry y="90" width="180" height="30" as="geometry" />
        </mxCell>
        <mxCell id="Sr963p4TRsLi51BW7ypq-107" value="" style="shape=partialRectangle;connectable=0;fillColor=none;top=0;left=0;bottom=0;right=0;editable=1;overflow=hidden;" vertex="1" parent="Sr963p4TRsLi51BW7ypq-106">
          <mxGeometry width="30" height="30" as="geometry" />
        </mxCell>
        <mxCell id="Sr963p4TRsLi51BW7ypq-108" value="event__modifiedAt" style="shape=partialRectangle;connectable=0;fillColor=none;top=0;left=0;bottom=0;right=0;align=left;spacingLeft=6;overflow=hidden;" vertex="1" parent="Sr963p4TRsLi51BW7ypq-106">
          <mxGeometry x="30" width="150" height="30" as="geometry" />
        </mxCell>
        <mxCell id="Sr963p4TRsLi51BW7ypq-109" value="" style="shape=partialRectangle;collapsible=0;dropTarget=0;pointerEvents=0;fillColor=none;top=0;left=0;bottom=0;right=0;points=[[0,0.5],[1,0.5]];portConstraint=eastwest;" vertex="1" parent="Sr963p4TRsLi51BW7ypq-99">
          <mxGeometry y="120" width="180" height="30" as="geometry" />
        </mxCell>
        <mxCell id="Sr963p4TRsLi51BW7ypq-110" value="" style="shape=partialRectangle;connectable=0;fillColor=none;top=0;left=0;bottom=0;right=0;editable=1;overflow=hidden;" vertex="1" parent="Sr963p4TRsLi51BW7ypq-109">
          <mxGeometry width="30" height="30" as="geometry" />
        </mxCell>
        <mxCell id="Sr963p4TRsLi51BW7ypq-111" value="event__modifiedAt" style="shape=partialRectangle;connectable=0;fillColor=none;top=0;left=0;bottom=0;right=0;align=left;spacingLeft=6;overflow=hidden;" vertex="1" parent="Sr963p4TRsLi51BW7ypq-109">
          <mxGeometry x="30" width="150" height="30" as="geometry" />
        </mxCell>
        <mxCell id="Sr963p4TRsLi51BW7ypq-112" value="service_feature" style="shape=table;startSize=30;container=1;collapsible=1;childLayout=tableLayout;fixedRows=1;rowLines=0;fontStyle=1;align=center;resizeLast=1;" vertex="1" parent="1">
          <mxGeometry x="310" y="555" width="180" height="150" as="geometry" />
        </mxCell>
        <mxCell id="Sr963p4TRsLi51BW7ypq-113" value="" style="shape=partialRectangle;collapsible=0;dropTarget=0;pointerEvents=0;fillColor=none;top=0;left=0;bottom=1;right=0;points=[[0,0.5],[1,0.5]];portConstraint=eastwest;" vertex="1" parent="Sr963p4TRsLi51BW7ypq-112">
          <mxGeometry y="30" width="180" height="30" as="geometry" />
        </mxCell>
        <mxCell id="Sr963p4TRsLi51BW7ypq-114" value="PK" style="shape=partialRectangle;connectable=0;fillColor=none;top=0;left=0;bottom=0;right=0;fontStyle=1;overflow=hidden;" vertex="1" parent="Sr963p4TRsLi51BW7ypq-113">
          <mxGeometry width="30" height="30" as="geometry" />
        </mxCell>
        <mxCell id="Sr963p4TRsLi51BW7ypq-115" value="event__id" style="shape=partialRectangle;connectable=0;fillColor=none;top=0;left=0;bottom=0;right=0;align=left;spacingLeft=6;fontStyle=5;overflow=hidden;" vertex="1" parent="Sr963p4TRsLi51BW7ypq-113">
          <mxGeometry x="30" width="150" height="30" as="geometry" />
        </mxCell>
        <mxCell id="Sr963p4TRsLi51BW7ypq-116" value="" style="shape=partialRectangle;collapsible=0;dropTarget=0;pointerEvents=0;fillColor=none;top=0;left=0;bottom=1;right=0;points=[[0,0.5],[1,0.5]];portConstraint=eastwest;" vertex="1" parent="Sr963p4TRsLi51BW7ypq-112">
          <mxGeometry y="60" width="180" height="30" as="geometry" />
        </mxCell>
        <mxCell id="Sr963p4TRsLi51BW7ypq-117" value="FK" style="shape=partialRectangle;connectable=0;fillColor=none;top=0;left=0;bottom=0;right=0;fontStyle=1;overflow=hidden;" vertex="1" parent="Sr963p4TRsLi51BW7ypq-116">
          <mxGeometry width="30" height="30" as="geometry" />
        </mxCell>
        <mxCell id="Sr963p4TRsLi51BW7ypq-118" value="zadmin__id" style="shape=partialRectangle;connectable=0;fillColor=none;top=0;left=0;bottom=0;right=0;align=left;spacingLeft=6;fontStyle=5;overflow=hidden;" vertex="1" parent="Sr963p4TRsLi51BW7ypq-116">
          <mxGeometry x="30" width="150" height="30" as="geometry" />
        </mxCell>
        <mxCell id="Sr963p4TRsLi51BW7ypq-119" value="" style="shape=partialRectangle;collapsible=0;dropTarget=0;pointerEvents=0;fillColor=none;top=0;left=0;bottom=0;right=0;points=[[0,0.5],[1,0.5]];portConstraint=eastwest;" vertex="1" parent="Sr963p4TRsLi51BW7ypq-112">
          <mxGeometry y="90" width="180" height="30" as="geometry" />
        </mxCell>
        <mxCell id="Sr963p4TRsLi51BW7ypq-120" value="" style="shape=partialRectangle;connectable=0;fillColor=none;top=0;left=0;bottom=0;right=0;editable=1;overflow=hidden;" vertex="1" parent="Sr963p4TRsLi51BW7ypq-119">
          <mxGeometry width="30" height="30" as="geometry" />
        </mxCell>
        <mxCell id="Sr963p4TRsLi51BW7ypq-121" value="event__modifiedAt" style="shape=partialRectangle;connectable=0;fillColor=none;top=0;left=0;bottom=0;right=0;align=left;spacingLeft=6;overflow=hidden;" vertex="1" parent="Sr963p4TRsLi51BW7ypq-119">
          <mxGeometry x="30" width="150" height="30" as="geometry" />
        </mxCell>
        <mxCell id="Sr963p4TRsLi51BW7ypq-122" value="" style="shape=partialRectangle;collapsible=0;dropTarget=0;pointerEvents=0;fillColor=none;top=0;left=0;bottom=0;right=0;points=[[0,0.5],[1,0.5]];portConstraint=eastwest;" vertex="1" parent="Sr963p4TRsLi51BW7ypq-112">
          <mxGeometry y="120" width="180" height="30" as="geometry" />
        </mxCell>
        <mxCell id="Sr963p4TRsLi51BW7ypq-123" value="" style="shape=partialRectangle;connectable=0;fillColor=none;top=0;left=0;bottom=0;right=0;editable=1;overflow=hidden;" vertex="1" parent="Sr963p4TRsLi51BW7ypq-122">
          <mxGeometry width="30" height="30" as="geometry" />
        </mxCell>
        <mxCell id="Sr963p4TRsLi51BW7ypq-124" value="event__modifiedAt" style="shape=partialRectangle;connectable=0;fillColor=none;top=0;left=0;bottom=0;right=0;align=left;spacingLeft=6;overflow=hidden;" vertex="1" parent="Sr963p4TRsLi51BW7ypq-122">
          <mxGeometry x="30" width="150" height="30" as="geometry" />
        </mxCell>
      </root>
    </mxGraphModel>
  </diagram>
</mxfile>
